<?xml version="1.0" encoding="UTF-8" standalone="no"?>
<svg width="270px" height="80px" viewBox="0 0 270 80" version="1.1" xmlns="http://www.w3.org/2000/svg" xmlns:xlink="http://www.w3.org/1999/xlink">
    <!-- Generator: Sketch 42 (36781) - http://www.bohemiancoding.com/sketch -->
    <title>Logo</title>
    <desc>Created with Sketch.</desc>
    <defs></defs>
    <g id="Page-1" stroke="none" stroke-width="1" fill="none" fill-rule="evenodd">
        <g id="Logo">
            <rect id="Rectangle" fill="#FFFFFF" x="0" y="0" width="270" height="80"></rect>
            <text id="InstantCar" font-family="PTSans-Bold, PT Sans" font-size="52" font-weight="bold" fill="#4A4A4A">
                <tspan x="75" y="58">I</tspan>
                <tspan x="89.82" y="58" font-size="40">nstant</tspan>
                <tspan x="198.06" y="58">C</tspan>
                <tspan x="227.128" y="58" font-size="40">ar</tspan>
            </text>
            <g id="car" transform="translate(10.000000, 10.000000)" fill-rule="nonzero">
                <g id="Layer_1">
                    <circle id="Oval" fill="#71D456" cx="30" cy="30" r="30"></circle>
                    <g id="Group" transform="translate(4.715128, 17.445972)" fill="#4485C5">
                        <path d="M5.11591356,2.66404715 L5.11591356,0.766208251 C5.11591356,0.365422397 4.79764244,0.047151277 4.39685658,0.047151277 L2.27504912,0.047151277 C1.02554028,0.047151277 0,1.06090373 0,2.32220039 C0,3.57170923 1.01375246,4.59724951 2.27504912,4.59724951 L6.14145383,4.59724951 L6.14145383,2.66404715 L5.11591356,2.66404715 L5.11591356,2.66404715 Z" id="Shape"></path>
                        <path d="M45.453831,2.66404715 L45.453831,0.766208251 C45.453831,0.365422397 45.7721022,0.047151277 46.172888,0.047151277 L48.2946955,0.047151277 C49.5442043,0.047151277 50.5697446,1.06090373 50.5697446,2.32220039 C50.5697446,3.57170923 49.5559921,4.59724951 48.2946955,4.59724951 L44.4282908,4.59724951 L44.4282908,2.66404715 L45.453831,2.66404715 L45.453831,2.66404715 Z" id="Shape"></path>
                    </g>
                    <g id="Group" transform="translate(5.422397, 36.660118)" fill="#333842">
                        <path d="M0.047151277,0.0707269155 L0.047151277,13.0373281 C0.047151277,13.6267191 0.530451866,14.1100196 1.11984283,14.1100196 L6.22396857,14.1100196 C6.81335953,14.1100196 7.29666012,13.6267191 7.29666012,13.0373281 L7.29666012,0.0707269155 L0.047151277,0.0707269155 Z" id="Shape"></path>
                        <path d="M41.8467583,0.0707269155 L41.8467583,13.0373281 C41.8467583,13.6267191 42.3300589,14.1100196 42.9194499,14.1100196 L48.0235756,14.1100196 C48.6129666,14.1100196 49.0962672,13.6267191 49.0962672,13.0373281 L49.0962672,0.0707269155 L41.8467583,0.0707269155 Z" id="Shape"></path>
                    </g>
                    <path d="M54.5658153,28.8565815 C53.8939096,26.9469548 52.1964637,26.3811395 51.524558,24.3536346 C50.8526523,22.3261297 45.7721022,11.7288802 43.1905697,10.3850688 C40.6090373,9.04125737 30,9.25343811 30,9.25343811 C30,9.25343811 19.4145383,9.02946955 16.8212181,10.3850688 C14.2278978,11.740668 9.15913556,22.3143418 8.47544204,24.3418468 C7.80353635,26.3693517 6.10609037,26.935167 5.43418468,28.8447937 C4.76227898,30.7544204 5.77603143,45.0766208 7.13163065,46.0903733 C8.48722986,47.1041257 30,47.3280943 30,47.3280943 C30,47.3280943 51.524558,47.1041257 52.8683694,46.0903733 C54.2239686,45.0766208 55.237721,30.7662083 54.5658153,28.8565815 Z" id="Shape" fill="#5AA4D1"></path>
                    <path d="M44.3339882,17.5049116 L30,18.4243615 L15.6660118,17.5049116 L11.2220039,22.043222 C11.2220039,22.043222 18,31.3202358 19.0373281,33.9489194 C20.0746562,36.5776031 19.108055,37.1905697 20.2750491,37.9449902 L30,37.9449902 L39.7249509,37.9449902 C40.891945,37.1787819 39.9253438,36.5776031 40.9626719,33.9489194 C42,31.3202358 48.7779961,22.043222 48.7779961,22.043222 L44.3339882,17.5049116 Z" id="Shape" fill="#6EB1E1"></path>
                    <g id="Group" transform="translate(8.015717, 28.998035)" fill="#333842">
                        <path d="M31.0373281,11.8585462 L12.9312377,11.8585462 C11.870334,11.8585462 11.021611,12.719057 11.021611,13.7681729 C11.021611,14.8290766 11.8821218,15.6777996 12.9312377,15.6777996 L31.0373281,15.6777996 C32.0982318,15.6777996 32.9469548,14.8172888 32.9469548,13.7681729 C32.9469548,12.719057 32.0982318,11.8585462 31.0373281,11.8585462 Z" id="Shape"></path>
                        <path d="M0.0589390963,13.1552063 L0.754420432,10.1257367 C0.919449902,9.39489194 1.5913556,8.89980354 2.33398821,8.95874263 L7.42632613,9.33595285 C8.48722986,9.41846758 9.1237721,10.5618861 8.61689587,11.5049116 L7.29666012,13.9921415 C7.10805501,14.345776 6.71905697,14.546169 6.31827112,14.5108055 L0.530451866,13.8388998 C0.212180747,13.8035363 -0.0117878193,13.4852652 0.0589390963,13.1552063 Z" id="Shape"></path>
                        <path d="M43.9096267,13.1552063 L43.2141454,10.1257367 C43.0491159,9.39489194 42.3772102,8.89980354 41.6345776,8.95874263 L36.5422397,9.33595285 C35.481336,9.41846758 34.8447937,10.5618861 35.3516699,11.5049116 L36.6719057,13.9921415 C36.8605108,14.345776 37.2495088,14.546169 37.6502947,14.5108055 L43.4381139,13.8388998 C43.7563851,13.8035363 43.9803536,13.4852652 43.9096267,13.1552063 Z" id="Shape"></path>
                        <path d="M20.9705305,5.29273084 L12.8369352,5.29273084 C12.2829077,5.29273084 11.8231827,4.84479371 11.8231827,4.27897839 L11.8231827,0.495088409 C11.8231827,0.235756385 12.0353635,0.0353634578 12.2829077,0.0353634578 L20.9587426,0.0353634578 C21.2180747,0.0353634578 21.4184676,0.247544204 21.4184676,0.495088409 L21.4184676,4.82121807 C21.4420432,5.09233792 21.2298625,5.29273084 20.9705305,5.29273084 Z" id="Shape"></path>
                        <path d="M22.9980354,5.29273084 L31.1316306,5.29273084 C31.6856582,5.29273084 32.1453831,4.84479371 32.1453831,4.27897839 L32.1453831,0.495088409 C32.1453831,0.235756385 31.9332024,0.0353634578 31.6856582,0.0353634578 L23.0098232,0.0353634578 C22.7504912,0.0353634578 22.5500982,0.247544204 22.5500982,0.495088409 L22.5500982,4.82121807 C22.5265226,5.09233792 22.7387033,5.29273084 22.9980354,5.29273084 Z" id="Shape"></path>
                        <path d="M31.6856582,6.27111984 L12.3300589,6.27111984 C11.8821218,6.27111984 11.5874263,6.75442043 11.8113949,7.15520629 L12.4125737,8.21611002 C12.518664,8.40471513 12.719057,8.52259332 12.9312377,8.52259332 L31.0962672,8.52259332 C31.3084479,8.52259332 31.5088409,8.40471513 31.6149312,8.21611002 L32.21611,7.15520629 C32.4282908,6.75442043 32.1453831,6.27111984 31.6856582,6.27111984 Z" id="Shape"></path>
                    </g>
                    <g id="Group" transform="translate(7.190570, 27.937132)" fill="#FFFFFC">
                        <path d="M9.61886051,4.63261297 L2.35756385,4.63261297 C1.10805501,4.63261297 0.094302554,3.61886051 0.094302554,2.36935167 L0.094302554,2.36935167 C0.094302554,0.931237721 1.41453831,-0.129666012 2.8172888,0.15324165 L9.22986248,1.49705305 C9.98428291,1.6502947 10.5854617,2.19253438 10.8447937,2.91159136 L10.8447937,2.91159136 C11.1277014,3.76031434 10.502947,4.63261297 9.61886051,4.63261297 Z" id="Shape"></path>
                        <path d="M36,4.63261297 L43.2612967,4.63261297 C44.5108055,4.63261297 45.524558,3.61886051 45.524558,2.36935167 L45.524558,2.36935167 C45.524558,0.931237721 44.2043222,-0.129666012 42.8015717,0.15324165 L36.388998,1.49705305 C35.6345776,1.6502947 35.0333988,2.19253438 34.7740668,2.91159136 L34.7740668,2.91159136 C34.4911591,3.76031434 35.1159136,4.63261297 36,4.63261297 Z" id="Shape"></path>
                    </g>
                    <path d="M43.6738703,12.0825147 C42.0589391,11.0805501 30,11.2102161 30,11.2102161 C30,11.2102161 17.9528487,11.0805501 16.3261297,12.0825147 C14.6994106,13.0844794 11.2220039,22.0550098 11.2220039,22.0550098 C14.5815324,21.2416503 30,21.1827112 30,21.1827112 C30,21.1827112 45.4184676,21.2416503 48.7779961,22.0550098 C48.7779961,22.043222 45.2888016,13.0726916 43.6738703,12.0825147 Z" id="Shape" fill="#333842"></path>
                </g>
            </g>
        </g>
    </g>
</svg>